<?xml version="1.0" encoding="utf-8"?>
<!-- Generator: Adobe Illustrator 16.0.0, SVG Export Plug-In . SVG Version: 6.00 Build 0)  -->
<!DOCTYPE svg PUBLIC "-//W3C//DTD SVG 1.1//EN" "http://www.w3.org/Graphics/SVG/1.1/DTD/svg11.dtd">
<svg version="1.1" id="Layer_1" xmlns="http://www.w3.org/2000/svg" xmlns:xlink="http://www.w3.org/1999/xlink" x="0px" y="0px"
	 width="64px" height="64px" viewBox="0 0 64 64" enable-background="new 0 0 64 64" xml:space="preserve">
<g id="Layer_3">
	<g id="layer1" transform="translate(-128.42765,-235.74261)">
		<g>
			<g>
				<defs>
					<polygon id="SVGID_1_" points="129.899,271.914 161.461,239.79 193.275,271.661 166.322,299.092 157.072,299.135 					"/>
				</defs>
				<clipPath id="SVGID_2_">
					<use xlink:href="#SVGID_1_"  overflow="visible"/>
				</clipPath>
				<g id="g3793" transform="matrix(0.99361633,0,0,1.0032742,2.2281157,-0.97258475)" clip-path="url(#SVGID_2_)">
					<g id="g3902">
						<path id="path3004_1_" fill="#F1E6DE" d="M191.887,271.625l-32.619,32.885l-32.813-32.232l17.709-17.849l11.36-4.821
							l-1.904-4.709l5.459-5.502L191.887,271.625z"/>
						<path id="path3001" fill="#FF8080" d="M137.421,260.939l33.073,32.435l-6.114,6.111l-33.073-32.436L137.421,260.939z"/>
						<path id="path3797" fill="#FF8080" d="M153.779,244.6l33.074,32.437l-6.114,6.111l-19.323-18.819L153.779,244.6z"/>
						<path id="path3799" fill="#FF8080" d="M186.948,266.769l-32.752,32.755l-6.17-6.053l32.752-32.755L186.948,266.769z"/>
						<path id="path3801" fill="#FF8080" d="M170.452,250.567l-32.753,32.756l-6.17-6.053l32.753-32.757L170.452,250.567z"/>
						<polygon id="rect3828" fill="#FF0000" points="148.835,272.136 142.721,278.299 136.612,272.239 142.726,266.076 						"/>
						<polygon id="rect3834" fill="#FF0000" points="165.195,255.8 159.078,261.966 152.956,255.892 159.072,249.726 						"/>
						<polygon id="rect3836" fill="#FF0000" points="181.689,271.969 175.57,278.135 169.465,272.075 175.584,265.91 						"/>
						<polygon id="rect3838" fill="#FF0000" points="165.343,288.312 159.227,294.478 153.12,288.418 159.236,282.254 						"/>
					</g>
					<path id="path2997" fill="#FF8080" d="M137.421,260.939l33.073,32.435l-6.114,6.111l-33.073-32.436L137.421,260.939z"/>
					<path id="path2999" fill="#FF8080" d="M153.779,244.6l33.074,32.437l-6.114,6.111l-19.677-19.17L153.779,244.6z"/>
					<path id="path3002" fill="#FF8080" d="M186.948,266.769l-32.752,32.755l-6.17-6.053l32.752-32.755L186.948,266.769z"/>
					<path id="path3004" fill="#FF8080" d="M170.452,250.567l-32.753,32.756l-6.17-6.053l32.753-32.757L170.452,250.567z"/>
					<polygon id="rect3006" fill="#FF0000" points="148.835,272.136 142.721,278.299 136.612,272.239 142.726,266.076 					"/>
					<polygon id="rect3008" fill="#FF0000" points="165.195,255.8 159.078,261.966 152.956,255.892 159.072,249.726 					"/>
					<polygon id="rect3010" fill="#FF0000" points="181.689,271.969 175.57,278.135 169.465,272.075 175.584,265.91 					"/>
					<polygon id="rect3012" fill="#FF0000" points="165.343,288.312 159.227,294.478 153.12,288.418 159.236,282.254 					"/>
				</g>
			</g>
		</g>
	</g>
</g>
<path fill="#FF3334" d="M30.235,16.463c-2.429,0.225-4.649,0.833-6.819,1.875c-4.001,1.925-7.291,5.207-9.221,9.206
	c-1.092,2.262-1.724,4.604-1.917,7.104c-0.051,0.67-0.051,2.281,0,2.951c0.229,2.935,1.108,5.809,2.557,8.327
	c1.225,2.13,2.964,4.146,4.901,5.679c3.081,2.44,6.842,3.905,10.791,4.199c0.674,0.051,2.194,0.051,2.868,0
	c3.59-0.267,7.035-1.503,9.937-3.563c2.722-1.933,4.874-4.46,6.336-7.418c1.041-2.12,1.661-4.274,1.937-6.741
	c0.069-0.618,0.094-2.641,0.043-3.359c-0.484-6.602-4.185-12.458-9.961-15.764c-2.444-1.399-5.16-2.24-8.047-2.496
	C32.843,16.394,31.006,16.394,30.235,16.463z"/>
<g id="Layer_6_1_">
	<path fill="#FF8080" d="M60.357,7.011c-1.828,1.396-3.389,5.718-3.969,11.003c-0.324,3.035-0.344,6.459-0.054,9.928
		c0.429,5.026,1.47,8.941,2.718,10.191l0.196,0.196l-0.081,0.825c-0.037,0.451-0.13,1.373-0.191,2.053
		c-0.061,0.676-0.233,2.59-0.391,4.252c-0.148,1.658-0.402,4.404-0.559,6.102c-0.153,1.697-0.328,3.609-0.391,4.252
		c-0.416,4.519-0.4,4.267-0.312,4.455c0.274,0.584,1.094,0.885,2.542,0.935c1.564,0.047,2.63-0.238,3.021-0.812
		c0.147-0.215,0.147-0.176-0.014-2.873c-0.178-3.094-0.396-6.815-0.835-14.541c-0.097-1.625-0.19-3.34-0.224-3.809
		c-0.033-0.59-0.033-0.936,0.012-1.126c0.072-0.327-0.039-24.775-0.123-26.51C61.6,9.286,61.46,7.998,61.26,7.364
		C61.061,6.734,60.832,6.645,60.357,7.011z"/>
	<path fill="#FF8080" d="M1.821,9.244c-0.108,1.769-0.263,3.839-0.398,5.285c-0.15,1.599-0.249,3.01-0.368,5.208
		c-0.099,1.773-0.072,2.155,0.166,2.836c0.223,0.625,0.545,1.08,1.083,1.526c0.383,0.319,0.544,0.421,0.907,0.565
		c0.244,0.093,0.597,0.204,0.788,0.247c0.322,0.063,0.353,0.076,0.353,0.179c0,0.059-0.035,0.714-0.077,1.45
		c-0.042,0.735-0.135,2.39-0.208,3.678c-0.073,1.284-0.177,3.159-0.232,4.167c-0.058,1.004-0.162,2.879-0.233,4.167
		c-0.073,1.284-0.177,3.15-0.233,4.146c-0.056,0.995-0.17,3.069-0.26,4.612c-0.087,1.543-0.202,3.619-0.258,4.612
		c-0.056,0.994-0.145,2.666-0.207,3.722c-0.058,1.051-0.115,1.994-0.129,2.098c-0.042,0.283,0.067,0.77,0.233,1.059
		c0.373,0.659,1.25,1.028,2.426,1.033c1.441,0,2.37-0.502,2.629-1.42c0.073-0.262,0.073-0.498,0-2.525
		c-0.179-4.994-0.268-7.498-0.392-11.022c-0.057-1.624-0.124-3.614-0.155-4.423c-0.031-0.81-0.099-2.797-0.155-4.422
		c-0.14-4-0.202-5.729-0.259-7.312c-0.026-0.735-0.067-1.879-0.083-2.539l-0.037-1.199l0.15-0.025
		c0.773-0.141,1.287-0.375,1.867-0.851c0.404-0.332,0.502-0.442,0.737-0.829c0.528-0.884,0.622-1.407,0.534-3.036
		c-0.131-2.423-0.281-4.6-0.37-5.424c-0.114-1.021-0.264-2.98-0.403-5.229l-0.09-1.384L8.846,8.181L8.55,8.168v4.384
		c0,4.83,0.021,4.558-0.321,4.702c-0.217,0.094-0.575,0.06-0.747-0.072c-0.067-0.051-0.151-0.166-0.177-0.247
		c-0.026-0.085-0.099-2.028-0.156-4.319c-0.062-2.292-0.124-4.231-0.134-4.307L6.991,8.173H6.638H6.28L6.249,8.691
		c-0.016,0.289-0.077,2.283-0.141,4.435c-0.125,4.435-0.077,4.095-0.543,4.158c-0.322,0.047-0.638-0.034-0.732-0.183
		c-0.051-0.085-0.067-1.05-0.067-4.52V8.173h-0.41h-0.41l-0.03,0.774C3.9,9.376,3.859,11.311,3.833,13.254
		c-0.032,1.938-0.079,3.597-0.104,3.682c-0.026,0.081-0.108,0.196-0.176,0.247c-0.171,0.132-0.529,0.166-0.747,0.072
		c-0.342-0.145-0.322,0.128-0.322-4.702v-4.38H2.185h-0.3L1.821,9.244z"/>
</g>
<g id="Layer_5_1_">
	<g>
		<path fill="#FF3334" d="M23.531,14.688l-1.327-3.104c-0.129-0.299-0.474-0.436-0.774-0.307c-0.298,0.128-0.436,0.477-0.306,0.775
			l1.324,3.098L23.531,14.688z M25.992,13.846l-1.42-3.286c-0.127-0.299-0.474-0.437-0.772-0.308
			c-0.299,0.128-0.436,0.477-0.307,0.774l1.366,3.162L25.992,13.846z M19.011,17.062l-0.997,0.721l-1.696-3.362
			c-2.308,0.371-4.628-0.865-5.577-3.059c-1.134-2.62,0.077-5.675,2.697-6.809c0.079-0.035,0.16-0.067,0.241-0.097
			c0.257-1.772,1.4-3.279,3.069-4.001c1.669-0.722,3.549-0.522,5.017,0.504c0.077-0.038,0.156-0.075,0.236-0.109
			c2.622-1.134,5.675,0.077,6.809,2.7c0.949,2.191,0.26,4.731-1.59,6.156l1.337,3.605l-1.239,0.221l-1.63-3.801
			c-0.14-0.326-0.016-0.707,0.29-0.889c1.626-0.962,2.285-2.996,1.535-4.731c-0.824-1.906-3.044-2.786-4.953-1.962
			c-0.166,0.072-0.329,0.158-0.487,0.255c-0.262,0.161-0.597,0.135-0.831-0.062c-1.102-0.935-2.609-1.161-3.935-0.587
			c-1.325,0.573-2.193,1.826-2.266,3.27c-0.016,0.306-0.227,0.566-0.523,0.647C14.343,5.717,14.168,5.778,14,5.851
			c-1.906,0.824-2.784,3.045-1.959,4.95c0.75,1.737,2.685,2.649,4.501,2.122c0.358-0.104,0.735,0.089,0.862,0.439
			c0.001,0.008,0.004,0.016,0.007,0.022L19.011,17.062z M21.203,15.75l-1.368-3.141c-0.129-0.3-0.476-0.436-0.775-0.308
			c-0.298,0.129-0.436,0.476-0.307,0.774l1.417,3.254L21.203,15.75z"/>
	</g>
</g>
<g id="Layer_4">
	<g transform="translate(0.000000,1280.000000) scale(0.100000,-0.100000)">
		<path fill="#FFFFFF" d="M309.014,12669.219c-0.977-0.074-4.15-0.289-7.031-0.508c-41.738-3.062-82.754-18.125-117.134-43.033
			c-20.22-14.668-38.208-32.758-52.803-53.232c-46.494-65.16-55.684-150.258-24.258-224.203c2.705-6.348,8.364-17.695,11.821-23.73
			c27.212-47.344,69.453-83.184,120.488-102.129c33.267-12.363,69.814-16.797,105.498-12.832
			c46.924,5.254,90.391,24.395,126.318,55.645c8.945,7.793,20.947,20.371,28.877,30.352c55.469,69.629,65.557,166.367,25.693,246.01
			c-28.223,56.406-77.852,98.682-137.822,117.461c-15.43,4.83-30.928,7.891-48.301,9.551
			C334.961,12669.072,313.115,12669.541,309.014,12669.219z M338.242,12625.316c17.266-1.836,32.979-5.512,48.076-11.279
			c65.166-24.902,111.221-83.545,119.658-152.338c8.213-67.051-19.932-132.676-74.385-173.359
			c-21.953-16.406-47.979-27.969-75.01-33.34c-13.33-2.676-21.445-3.418-36.582-3.418c-15.42,0-23.457,0.781-37.3,3.555
			c-78.643,15.898-138.906,81.035-148.672,160.703c-10.522,85.678,38.745,167.275,119.658,198.197
			c17.91,6.852,34.351,10.309,56.763,11.93C314.414,12626.254,333.486,12625.824,338.242,12625.316z"/>
		<path fill="#F1E6DE" d="M303.965,12621.68c-22.598-2.09-43.252-7.75-63.433-17.447c-37.231-17.91-67.832-48.438-85.781-85.635
			c-10.161-21.045-16.04-42.822-17.842-66.098c-0.469-6.23-0.469-21.23,0-27.461c2.129-27.285,10.308-54.023,23.789-77.461
			c11.392-19.805,27.573-38.555,45.591-52.832c28.657-22.695,63.652-36.328,100.381-39.062c6.27-0.469,20.4-0.469,26.67,0
			c33.408,2.48,65.449,13.984,92.441,33.164c25.303,17.969,45.342,41.484,58.936,69.004c9.688,19.727,15.459,39.766,18.018,62.715
			c0.645,5.742,0.859,24.551,0.391,31.25c-4.502,61.416-38.916,115.908-92.656,146.65c-22.744,13.012-48.008,20.834-74.863,23.213
			C328.223,12622.328,311.133,12622.328,303.965,12621.68z"/>
	</g>
</g>
<g id="Layer_7">
	<g transform="translate(0.000000,640.000000) scale(0.100000,-0.100000)">
		<path fill="#FF3334" d="M290.117,6078.906c-7.9-0.84-15.791-3.975-24.346-9.727c-4.78-3.203-9.067-6.582-18.14-14.297
			c-9.614-8.184-14.077-11.523-19.966-14.824c-6.792-3.867-11.846-5.938-17.783-7.344c-2.256-0.508-3.135-0.605-5.908-0.605
			c-2.798,0-3.477,0.059-4.604,0.488c-2.007,0.742-3.091,1.465-4.487,2.988c-2.192,2.344-3.389,5.645-3.408,9.258
			c-0.024,2.598,0.518,4.004,2.051,5.43c1.782,1.621,3.501,2.246,9.995,3.652c2.979,0.625,4.492,1.27,5.552,2.344
			c1.421,1.426,0.928,2.188-2.344,3.574c-3.569,1.484-6.66,1.914-9.976,1.367c-6.499-1.055-11.597-4.375-15.771-10.195
			c-5.728-8.027-6.929-16.973-3.408-25.176c6.66-15.508,31.724-25.723,66.924-27.285c18.457-0.801,41.714,2.344,53.657,7.266
			c4.346,1.777,6.699,3.203,12.002,7.246c1.709,1.309,5.254,3.066,6.973,3.457c1.895,0.449,4.326,0.508,5.049,0.137
			c0.293-0.156,1.396-0.938,2.48-1.719c18.193-13.301,57.061-19.57,90.732-14.648c14.98,2.188,27.48,6.562,36.094,12.676
			c2.666,1.875,6.729,5.918,8.301,8.223c5.352,7.832,5.986,16.094,1.855,24.316c-2.168,4.316-5.84,8.75-9.678,11.641
			c-2.188,1.68-6.23,3.73-8.262,4.238c-4.375,1.113-8.193,0.371-10.986-2.109c-1.172-1.035-2.441-2.793-2.441-3.438
			c0-0.898,2.939-1.816,9.609-3.086c3.75-0.703,5.42-1.328,6.816-2.598c2.266-2.051,2.686-5.723,1.045-9.004
			c-0.684-1.309-3.252-4.062-5.439-5.82c-4.697-3.711-10.088-4.531-16.426-2.402c-2.188,0.723-6.211,2.734-8.486,4.277
			c-2.686,1.797-11.592,8.574-22.764,17.305c-4.785,3.75-10.293,7.949-12.227,9.336c-11.582,8.242-21.006,12.666-30.752,14.404
			c-2.529,0.449-3.662,0.518-8.125,0.518c-3.955,0-5.713-0.088-7.334-0.41c-5.186-0.938-10.176-2.568-14.873-4.805
			c-3.428-1.641-3.74-1.641-6.787,0c-4.58,2.461-10.557,4.473-15.166,5.098C296.797,6079.023,292.354,6079.13,290.117,6078.906z"/>
	</g>
</g>
</svg>
